<?xml version="1.0" encoding="utf-8"?>
<!-- Uploaded to: SVG Repo, www.svgrepo.com, Generator: SVG Repo Mixer Tools -->
<svg fill="#000000" width="800px" height="800px" viewBox="0 -14.02 63 63" xmlns="http://www.w3.org/2000/svg">
  <g id="_28" data-name="28" transform="translate(-403.5 -858.023)">
    <path id="Path_144" data-name="Path 144" d="M465.217,888.857H404.779a1.281,1.281,0,0,0,0,2.561h4.076a1.6,1.6,0,0,0,1.487,1.559h48.752a1.6,1.6,0,0,0,1.488-1.559h4.635a1.281,1.281,0,1,0,0-2.561Z"/>
    <path id="Path_145" data-name="Path 145" d="M459.6,886.721c0-12.342-9.754-22.35-21.784-22.35h-4.183c-12.035,0-21.785,10.008-21.785,22.35v.8H459.6Zm-27.1-18.461c-15.351,1.336-15.435,16.027-15.432,16.654a.687.687,0,1,1-1.373.007c0-.166.057-16.58,16.686-18.032a.688.688,0,0,1,.119,1.371Z"/>
    <path id="Path_146" data-name="Path 146" d="M434.051,862.811h3.008a2.394,2.394,0,0,0,0-4.788h-3.008a2.394,2.394,0,0,0,0,4.788Zm-1.487-2.816a.771.771,0,1,1,1.541,0v1.152a.771.771,0,1,1-1.541,0Z"/>
  </g>
</svg>